<svg xmlns="http://www.w3.org/2000/svg" xmlns:xlink="http://www.w3.org/1999/xlink" version="1.1" width="612pt" height="792pt" viewBox="0 0 612 792">
<defs>
<clipPath id="clip_0">
<path transform="matrix(1,0,0,-1,0,792)" d="M0 0H612V792H0Z" fill-rule="evenodd"/>
</clipPath>
<clipPath id="clip_1">
<path transform="matrix(1,0,0,-1,0,792)" d="M0 167.5H612V707.7H0Z" fill-rule="evenodd"/>
</clipPath>
<clipPath id="clip_2">
<path transform="matrix(1,0,0,-1,0,792)" d="M0 0H612V792H0Z" fill-rule="evenodd"/>
</clipPath>
</defs>
<g>
<g clip-path="url(#clip_0)">
<path transform="matrix(1,0,0,-1,0,792)" d="M56.7 686H234.7V707.7H56.7Z" fill="#e6e6e6" fill-rule="evenodd"/>
<path transform="matrix(1,0,0,-1,0,792)" d="M234.7 686H306V707.7H234.7Z" fill="#e6e6e6" fill-rule="evenodd"/>
<path transform="matrix(1,0,0,-1,0,792)" d="M306 686H421.5V707.7H306Z" fill="#e6e6e6" fill-rule="evenodd"/>
<path transform="matrix(1,0,0,-1,0,792)" d="M421.5 686H555.4V707.7H421.5Z" fill="#e6e6e6" fill-rule="evenodd"/>
<path transform="matrix(1,0,0,-1,0,792)" d="M56.7 642.8H234.7V664.39999H56.7Z" fill="#e6e6e6" fill-rule="evenodd"/>
<path transform="matrix(1,0,0,-1,0,792)" d="M234.7 642.8H306V664.39999H234.7Z" fill="#e6e6e6" fill-rule="evenodd"/>
<path transform="matrix(1,0,0,-1,0,792)" d="M306 642.8H421.5V664.39999H306Z" fill="#e6e6e6" fill-rule="evenodd"/>
<path transform="matrix(1,0,0,-1,0,792)" d="M421.5 642.8H555.4V664.39999H421.5Z" fill="#e6e6e6" fill-rule="evenodd"/>
<path transform="matrix(1,0,0,-1,0,792)" d="M56.7 621.2H234.7V642.8H56.7Z" fill="#e6e6e6" fill-rule="evenodd"/>
<path transform="matrix(1,0,0,-1,0,792)" d="M234.7 621.2H306V642.8H234.7Z" fill="#e6e6e6" fill-rule="evenodd"/>
<path transform="matrix(1,0,0,-1,0,792)" d="M306 621.2H421.5V642.8H306Z" fill="#e6e6e6" fill-rule="evenodd"/>
<path transform="matrix(1,0,0,-1,0,792)" d="M421.5 621.2H555.4V642.8H421.5Z" fill="#e6e6e6" fill-rule="evenodd"/>
<path transform="matrix(1,0,0,-1,0,792)" d="M56.7 578H234.7V599.6H56.7Z" fill="#e6e6e6" fill-rule="evenodd"/>
<path transform="matrix(1,0,0,-1,0,792)" d="M234.7 578H306V599.6H234.7Z" fill="#e6e6e6" fill-rule="evenodd"/>
<path transform="matrix(1,0,0,-1,0,792)" d="M306 578H421.5V599.6H306Z" fill="#e6e6e6" fill-rule="evenodd"/>
<path transform="matrix(1,0,0,-1,0,792)" d="M421.5 578H555.4V599.6H421.5Z" fill="#e6e6e6" fill-rule="evenodd"/>
<path transform="matrix(1,0,0,-1,0,792)" d="M56.7 556.4H234.7V578H56.7Z" fill="#e6e6e6" fill-rule="evenodd"/>
<path transform="matrix(1,0,0,-1,0,792)" d="M234.7 556.4H306V578H234.7Z" fill="#e6e6e6" fill-rule="evenodd"/>
<path transform="matrix(1,0,0,-1,0,792)" d="M306 556.4H421.5V578H306Z" fill="#e6e6e6" fill-rule="evenodd"/>
<path transform="matrix(1,0,0,-1,0,792)" d="M421.5 556.4H555.4V578H421.5Z" fill="#e6e6e6" fill-rule="evenodd"/>
<path transform="matrix(1,0,0,-1,0,792)" d="M56.7 513.2H234.7V534.8H56.7Z" fill="#e6e6e6" fill-rule="evenodd"/>
<path transform="matrix(1,0,0,-1,0,792)" d="M234.7 513.2H306V534.8H234.7Z" fill="#e6e6e6" fill-rule="evenodd"/>
<path transform="matrix(1,0,0,-1,0,792)" d="M306 513.2H421.5V534.8H306Z" fill="#e6e6e6" fill-rule="evenodd"/>
<path transform="matrix(1,0,0,-1,0,792)" d="M421.5 513.2H555.4V534.8H421.5Z" fill="#e6e6e6" fill-rule="evenodd"/>
<path transform="matrix(1,0,0,-1,0,792)" d="M56.7 491.6H234.7V513.2H56.7Z" fill="#e6e6e6" fill-rule="evenodd"/>
<path transform="matrix(1,0,0,-1,0,792)" d="M234.7 491.6H306V513.2H234.7Z" fill="#e6e6e6" fill-rule="evenodd"/>
<path transform="matrix(1,0,0,-1,0,792)" d="M306 491.6H421.5V513.2H306Z" fill="#e6e6e6" fill-rule="evenodd"/>
<path transform="matrix(1,0,0,-1,0,792)" d="M421.5 491.6H555.4V513.2H421.5Z" fill="#e6e6e6" fill-rule="evenodd"/>
<path transform="matrix(1,0,0,-1,0,792)" d="M56.7 448.4H234.7V470H56.7Z" fill="#e6e6e6" fill-rule="evenodd"/>
<path transform="matrix(1,0,0,-1,0,792)" d="M234.7 448.4H306V470H234.7Z" fill="#e6e6e6" fill-rule="evenodd"/>
<path transform="matrix(1,0,0,-1,0,792)" d="M306 448.4H421.5V470H306Z" fill="#e6e6e6" fill-rule="evenodd"/>
<path transform="matrix(1,0,0,-1,0,792)" d="M421.5 448.4H555.4V470H421.5Z" fill="#e6e6e6" fill-rule="evenodd"/>
<path transform="matrix(1,0,0,-1,0,792)" d="M56.7 426.8H234.7V448.4H56.7Z" fill="#e6e6e6" fill-rule="evenodd"/>
<path transform="matrix(1,0,0,-1,0,792)" d="M234.7 426.8H306V448.4H234.7Z" fill="#e6e6e6" fill-rule="evenodd"/>
<path transform="matrix(1,0,0,-1,0,792)" d="M306 426.8H421.5V448.4H306Z" fill="#e6e6e6" fill-rule="evenodd"/>
<path transform="matrix(1,0,0,-1,0,792)" d="M421.5 426.8H555.4V448.4H421.5Z" fill="#e6e6e6" fill-rule="evenodd"/>
<path transform="matrix(1,0,0,-1,0,792)" d="M56.7 383.6H234.7V405.2H56.7Z" fill="#e6e6e6" fill-rule="evenodd"/>
<path transform="matrix(1,0,0,-1,0,792)" d="M234.7 383.6H306V405.2H234.7Z" fill="#e6e6e6" fill-rule="evenodd"/>
<path transform="matrix(1,0,0,-1,0,792)" d="M306 383.6H421.5V405.2H306Z" fill="#e6e6e6" fill-rule="evenodd"/>
<path transform="matrix(1,0,0,-1,0,792)" d="M421.5 383.6H555.4V405.2H421.5Z" fill="#e6e6e6" fill-rule="evenodd"/>
<path transform="matrix(1,0,0,-1,0,792)" d="M56.7 362H234.7V383.6H56.7Z" fill="#e6e6e6" fill-rule="evenodd"/>
<path transform="matrix(1,0,0,-1,0,792)" d="M234.7 362H306V383.6H234.7Z" fill="#e6e6e6" fill-rule="evenodd"/>
<path transform="matrix(1,0,0,-1,0,792)" d="M306 362H421.5V383.6H306Z" fill="#e6e6e6" fill-rule="evenodd"/>
<path transform="matrix(1,0,0,-1,0,792)" d="M421.5 362H555.4V383.6H421.5Z" fill="#e6e6e6" fill-rule="evenodd"/>
<path transform="matrix(1,0,0,-1,0,792)" d="M56.7 340.4H234.7V362H56.7Z" fill="#e6e6e6" fill-rule="evenodd"/>
<path transform="matrix(1,0,0,-1,0,792)" d="M234.7 340.4H306V362H234.7Z" fill="#e6e6e6" fill-rule="evenodd"/>
<path transform="matrix(1,0,0,-1,0,792)" d="M306 340.4H421.5V362H306Z" fill="#e6e6e6" fill-rule="evenodd"/>
<path transform="matrix(1,0,0,-1,0,792)" d="M421.5 340.4H555.4V362H421.5Z" fill="#e6e6e6" fill-rule="evenodd"/>
<path transform="matrix(1,0,0,-1,0,792)" d="M56.7 297.2H234.7V318.80003H56.7Z" fill="#e6e6e6" fill-rule="evenodd"/>
<path transform="matrix(1,0,0,-1,0,792)" d="M234.7 297.2H306V318.80003H234.7Z" fill="#e6e6e6" fill-rule="evenodd"/>
<path transform="matrix(1,0,0,-1,0,792)" d="M306 297.2H421.5V318.80003H306Z" fill="#e6e6e6" fill-rule="evenodd"/>
<path transform="matrix(1,0,0,-1,0,792)" d="M421.5 297.2H555.4V318.80003H421.5Z" fill="#e6e6e6" fill-rule="evenodd"/>
<path transform="matrix(1,0,0,-1,0,792)" d="M56.7 275.6H234.7V297.2H56.7Z" fill="#e6e6e6" fill-rule="evenodd"/>
<path transform="matrix(1,0,0,-1,0,792)" d="M234.7 275.6H306V297.2H234.7Z" fill="#e6e6e6" fill-rule="evenodd"/>
<path transform="matrix(1,0,0,-1,0,792)" d="M306 275.6H421.5V297.2H306Z" fill="#e6e6e6" fill-rule="evenodd"/>
<path transform="matrix(1,0,0,-1,0,792)" d="M421.5 275.6H555.4V297.2H421.5Z" fill="#e6e6e6" fill-rule="evenodd"/>
<path transform="matrix(1,0,0,-1,0,792)" d="M56.7 254H234.7V275.6H56.7Z" fill="#e6e6e6" fill-rule="evenodd"/>
<path transform="matrix(1,0,0,-1,0,792)" d="M234.7 254H306V275.6H234.7Z" fill="#e6e6e6" fill-rule="evenodd"/>
<path transform="matrix(1,0,0,-1,0,792)" d="M306 254H421.5V275.6H306Z" fill="#e6e6e6" fill-rule="evenodd"/>
<path transform="matrix(1,0,0,-1,0,792)" d="M421.5 254H555.4V275.6H421.5Z" fill="#e6e6e6" fill-rule="evenodd"/>
<path transform="matrix(1,0,0,-1,0,792)" d="M56.7 210.8H234.7V232.40001H56.7Z" fill="#e6e6e6" fill-rule="evenodd"/>
<path transform="matrix(1,0,0,-1,0,792)" d="M234.7 210.8H306V232.40001H234.7Z" fill="#e6e6e6" fill-rule="evenodd"/>
<path transform="matrix(1,0,0,-1,0,792)" d="M306 210.8H421.5V232.40001H306Z" fill="#e6e6e6" fill-rule="evenodd"/>
<path transform="matrix(1,0,0,-1,0,792)" d="M421.5 210.8H555.4V232.40001H421.5Z" fill="#e6e6e6" fill-rule="evenodd"/>
<path transform="matrix(1,0,0,-1,0,792)" d="M56.7 189.2H234.7V210.8H56.7Z" fill="#e6e6e6" fill-rule="evenodd"/>
<path transform="matrix(1,0,0,-1,0,792)" d="M234.7 189.2H306V210.8H234.7Z" fill="#e6e6e6" fill-rule="evenodd"/>
<path transform="matrix(1,0,0,-1,0,792)" d="M306 189.2H421.5V210.8H306Z" fill="#e6e6e6" fill-rule="evenodd"/>
<path transform="matrix(1,0,0,-1,0,792)" d="M421.5 189.2H555.4V210.8H421.5Z" fill="#e6e6e6" fill-rule="evenodd"/>
<path transform="matrix(1,0,0,-1,0,792)" d="M56.7 167.6H234.7V189.20001H56.7Z" fill="#e6e6e6" fill-rule="evenodd"/>
<path transform="matrix(1,0,0,-1,0,792)" d="M234.7 167.6H306V189.20001H234.7Z" fill="#e6e6e6" fill-rule="evenodd"/>
<path transform="matrix(1,0,0,-1,0,792)" d="M306 167.6H421.5V189.20001H306Z" fill="#e6e6e6" fill-rule="evenodd"/>
<path transform="matrix(1,0,0,-1,0,792)" d="M421.5 167.6H555.4V189.20001H421.5Z" fill="#e6e6e6" fill-rule="evenodd"/>
</g>
<g clip-path="url(#clip_1)">
<path transform="matrix(1,0,0,-1,0,792)" d="M56.7 707.7H234.7 56.7Z" fill-rule="evenodd"/>
<path transform="matrix(1,0,0,-1,0,792)" stroke-width=".1" stroke-linecap="butt" stroke-miterlimit="10" stroke-linejoin="miter" fill="none" stroke="#000000" d="M56.7 707.7H234.7 56.7Z"/>
<path transform="matrix(1,0,0,-1,0,792)" d="M234.7 707.7H306 234.7Z" fill-rule="evenodd"/>
<path transform="matrix(1,0,0,-1,0,792)" stroke-width=".1" stroke-linecap="butt" stroke-miterlimit="10" stroke-linejoin="miter" fill="none" stroke="#000000" d="M234.7 707.7H306 234.7Z"/>
<path transform="matrix(1,0,0,-1,0,792)" d="M306 707.7H421.5 306Z" fill-rule="evenodd"/>
<path transform="matrix(1,0,0,-1,0,792)" stroke-width=".1" stroke-linecap="butt" stroke-miterlimit="10" stroke-linejoin="miter" fill="none" stroke="#000000" d="M306 707.7H421.5 306Z"/>
<path transform="matrix(1,0,0,-1,0,792)" d="M421.5 707.7H555.4 421.5Z" fill-rule="evenodd"/>
<path transform="matrix(1,0,0,-1,0,792)" stroke-width=".1" stroke-linecap="butt" stroke-miterlimit="10" stroke-linejoin="miter" fill="none" stroke="#000000" d="M421.5 707.7H555.4 421.5Z"/>
<path transform="matrix(1,0,0,-1,0,792)" d="M56.7 686H234.7 56.7Z" fill-rule="evenodd"/>
<path transform="matrix(1,0,0,-1,0,792)" stroke-width=".1" stroke-linecap="butt" stroke-miterlimit="10" stroke-linejoin="miter" fill="none" stroke="#000000" d="M56.7 686H234.7 56.7Z"/>
<path transform="matrix(1,0,0,-1,0,792)" d="M234.7 686H306 234.7Z" fill-rule="evenodd"/>
<path transform="matrix(1,0,0,-1,0,792)" stroke-width=".1" stroke-linecap="butt" stroke-miterlimit="10" stroke-linejoin="miter" fill="none" stroke="#000000" d="M234.7 686H306 234.7Z"/>
<path transform="matrix(1,0,0,-1,0,792)" d="M306 686H421.5 306Z" fill-rule="evenodd"/>
<path transform="matrix(1,0,0,-1,0,792)" stroke-width=".1" stroke-linecap="butt" stroke-miterlimit="10" stroke-linejoin="miter" fill="none" stroke="#000000" d="M306 686H421.5 306Z"/>
<path transform="matrix(1,0,0,-1,0,792)" d="M421.5 686H555.4 421.5Z" fill-rule="evenodd"/>
<path transform="matrix(1,0,0,-1,0,792)" stroke-width=".1" stroke-linecap="butt" stroke-miterlimit="10" stroke-linejoin="miter" fill="none" stroke="#000000" d="M421.5 686H555.4 421.5Z"/>
<path transform="matrix(1,0,0,-1,0,792)" d="M56.7 167.6H234.7 56.7Z" fill-rule="evenodd"/>
<path transform="matrix(1,0,0,-1,0,792)" stroke-width=".1" stroke-linecap="butt" stroke-miterlimit="10" stroke-linejoin="miter" fill="none" stroke="#000000" d="M56.7 167.6H234.7 56.7Z"/>
<path transform="matrix(1,0,0,-1,0,792)" d="M234.7 167.6H306 234.7Z" fill-rule="evenodd"/>
<path transform="matrix(1,0,0,-1,0,792)" stroke-width=".1" stroke-linecap="butt" stroke-miterlimit="10" stroke-linejoin="miter" fill="none" stroke="#000000" d="M234.7 167.6H306 234.7Z"/>
<path transform="matrix(1,0,0,-1,0,792)" d="M306 167.6H421.5 306Z" fill-rule="evenodd"/>
<path transform="matrix(1,0,0,-1,0,792)" stroke-width=".1" stroke-linecap="butt" stroke-miterlimit="10" stroke-linejoin="miter" fill="none" stroke="#000000" d="M306 167.6H421.5 306Z"/>
<path transform="matrix(1,0,0,-1,0,792)" d="M421.5 167.6H555.4 421.5Z" fill-rule="evenodd"/>
<path transform="matrix(1,0,0,-1,0,792)" stroke-width=".1" stroke-linecap="butt" stroke-miterlimit="10" stroke-linejoin="miter" fill="none" stroke="#000000" d="M421.5 167.6H555.4 421.5Z"/>
</g>
<g clip-path="url(#clip_2)">
<text xml:space="preserve" transform="matrix(1 0 -0 1 0 792)" font-size="13" font-family="TimesNewRomanPS" font-weight="bold"><tspan y="-692.7" x="253.5 262.886 270.08799 273.689 280.189">Union</tspan></text>
<text xml:space="preserve" transform="matrix(1 0 -0 1 0 792)" font-size="13" font-family="TimesNewRomanPS" font-weight="bold"><tspan y="-692.7" x="315.1 320.183 327.385 331.68803 337.38203 343.16703 348.25004 353.94404 359.72904 364.03205 367.63307 374.22407 381.42607 388.62806 392.93107 398.71607 402.31709 408.10209">IntersectionStrict</tspan></text>
<text xml:space="preserve" transform="matrix(1 0 -0 1 0 792)" font-size="13" font-family="TimesNewRomanPS" font-weight="bold"><tspan y="-692.7" x="426.4 431.483 438.685 442.988 448.682 454.467 459.55003 465.24403 471.02903 475.33204 478.93305 485.52406 492.72605 502.11204 508.61204 512.91506 521.59909 532.40206 539.60409 543.90707">IntersectionNotEmpty</tspan></text>
<text xml:space="preserve" transform="matrix(1 0 -0 1 0 792)" font-size="14" font-family="TimesNewRomanPSMT"><tspan y="-626.9" x="245.4 253.18399 259.386 265.58799 269.47999 276.47999 281.16999 287.37199 290.87199">Feature I</tspan></text>
<text xml:space="preserve" transform="matrix(1 0 -0 1 0 792)" font-size="14" font-family="TimesNewRomanPSMT"><tspan y="-626.9" x="338.8 346.58399 352.78599 358.98799 362.87998 369.87998 374.56999 380.77198 384.27198">Feature I</tspan></text>
<text xml:space="preserve" transform="matrix(1 0 -0 1 0 792)" font-size="14" font-family="TimesNewRomanPSMT"><tspan y="-626.9" x="463.5 471.284 477.486 483.688 487.58 494.58 499.27 505.472 508.972">Feature I</tspan></text>
<text xml:space="preserve" transform="matrix(1 0 -0 1 0 792)" font-size="14" font-family="TimesNewRomanPSMT"><tspan y="-562.1" x="245.4 253.18399 259.386 265.58799 269.47999 276.47999 281.16999 287.37199 290.87199">Feature I</tspan></text>
<text xml:space="preserve" transform="matrix(1 0 -0 1 0 792)" font-size="14" font-family="TimesNewRomanPSMT"><tspan y="-562.1" x="346.1 356.194 363.194 366.694 373.694 377.586">No hit</tspan></text>
<text xml:space="preserve" transform="matrix(1 0 -0 1 0 792)" font-size="14" font-family="TimesNewRomanPSMT"><tspan y="-562.1" x="463.5 471.284 477.486 483.688 487.58 494.58 499.27 505.472 508.972">Feature I</tspan></text>
<text xml:space="preserve" transform="matrix(1 0 -0 1 0 792)" font-size="14" font-family="TimesNewRomanPSMT"><tspan y="-497.3" x="245.4 253.18399 259.386 265.58799 269.47999 276.47999 281.16999 287.37199 290.87199">Feature I</tspan></text>
<text xml:space="preserve" transform="matrix(1 0 -0 1 0 792)" font-size="14" font-family="TimesNewRomanPSMT"><tspan y="-497.3" x="346.1 356.194 363.194 366.694 373.694 377.586">No hit</tspan></text>
<text xml:space="preserve" transform="matrix(1 0 -0 1 0 792)" font-size="14" font-family="TimesNewRomanPSMT"><tspan y="-497.3" x="463.5 471.284 477.486 483.688 487.58 494.58 499.27 505.472 508.972">Feature I</tspan></text>
<text xml:space="preserve" transform="matrix(1 0 -0 1 0 792)" font-size="14" font-family="TimesNewRomanPSMT"><tspan y="-432.5" x="245.4 253.18399 259.386 265.58799 269.47999 276.47999 281.16999 287.37199 290.87199">Feature I</tspan></text>
<text xml:space="preserve" transform="matrix(1 0 -0 1 0 792)" font-size="14" font-family="TimesNewRomanPSMT"><tspan y="-432.5" x="338.8 346.58399 352.78599 358.98799 362.87998 369.87998 374.56999 380.77198 384.27198">Feature I</tspan></text>
<text xml:space="preserve" transform="matrix(1 0 -0 1 0 792)" font-size="14" font-family="TimesNewRomanPSMT"><tspan y="-432.5" x="463.5 471.284 477.486 483.688 487.58 494.58 499.27 505.472 508.972">Feature I</tspan></text>
<text xml:space="preserve" transform="matrix(1 0 -0 1 0 792)" font-size="14" font-family="TimesNewRomanPSMT"><tspan y="-367.7" x="245.4 253.18399 259.386 265.58799 269.47999 276.47999 281.16999 287.37199 290.87199">Feature I</tspan></text>
<text xml:space="preserve" transform="matrix(1 0 -0 1 0 792)" font-size="14" font-family="TimesNewRomanPSMT"><tspan y="-367.7" x="338.8 346.58399 352.78599 358.98799 362.87998 369.87998 374.56999 380.77198 384.27198">Feature I</tspan></text>
<text xml:space="preserve" transform="matrix(1 0 -0 1 0 792)" font-size="14" font-family="TimesNewRomanPSMT"><tspan y="-367.7" x="463.5 471.284 477.486 483.688 487.58 494.58 499.27 505.472 508.972">Feature I</tspan></text>
<text xml:space="preserve" transform="matrix(1 0 -0 1 0 792)" font-size="14" font-family="TimesNewRomanPSMT"><tspan y="-281.3" x="252.7 262.79399 269.79399 273.29399 280.29399 284.18598">No hit</tspan></text>
<text xml:space="preserve" transform="matrix(1 0 -0 1 0 792)" font-size="14" font-family="TimesNewRomanPSMT"><tspan y="-281.3" x="337.6 345.384 351.586 357.788 361.68 368.68 373.37 379.572 383.072">Feature 1</tspan></text>
<text xml:space="preserve" transform="matrix(1 0 -0 1 0 792)" font-size="14" font-family="TimesNewRomanPSMT"><tspan y="-281.3" x="463.5 471.284 477.486 483.688 487.58 494.58 499.27 505.472 508.972">Feature I</tspan></text>
<text xml:space="preserve" transform="matrix(1 0 -0 1 0 792)" font-size="14" font-family="TimesNewRomanPSMT"><tspan y="-194.9" x="252.7 262.79399 269.79399 273.29399 280.29399 284.18598">No hit</tspan></text>
<text xml:space="preserve" transform="matrix(1 0 -0 1 0 792)" font-size="14" font-family="TimesNewRomanPSMT"><tspan y="-194.9" x="346.1 356.194 363.194 366.694 373.694 377.586">No hit</tspan></text>
<text xml:space="preserve" transform="matrix(1 0 -0 1 0 792)" font-size="14" font-family="TimesNewRomanPSMT"><tspan y="-194.9" x="470.8 480.89399 487.89399 491.39399 498.39399 502.28599">No hit</tspan></text>
<text xml:space="preserve" transform="matrix(1 0 -0 1 0 792)" font-size="10" font-family="TimesNewRomanPSMT"><tspan y="-146.6" x="56.8 61.8 64.3 69.8 72.59 76.99 79.77999 84.77999 88.16999 92.56999 95.06999 98.369998 102.77 107.85999 111.159999 116.159999 121.159999 126.159999 130.56 134.95999 140.04999 142.54999 145.84999 149.15 154.15 161.94 164.44 171.64 177.74 183.33 187.73001 192.82 195.32 202.52 206.92002 211.92002 214.42002 218.31002 221.10002 223.89003 228.29004 230.79004">* Picture reproduced from HTSeq web site :</tspan></text>
<text xml:space="preserve" transform="matrix(1 0 -0 1 0 792)" font-size="10" font-family="TimesNewRomanPSMT"><tspan y="-135.1" x="56.8 61.8 64.5 67.28999 72.28999 75.07999 77.86998 80.65997 87.85998 95.05998 102.25999 105.64999 110.64999 115.64999 120.64999 125.04999 127.74999 130.34 134.73999 142.53 147.53 150.32 152.82 157.82 162.22 165.01001 170.01001 173.90001 178.30002 181.60002 185.49002 188.28003 192.68003 197.68003 202.77002 207.17002 210.47002 214.36002 217.15003 224.35002 230.45003 236.04003 240.44004 245.44004 248.23004 253.23004 258.23005 262.63005 265.42 269.82 274.82 279.82 284.82 287.61 290.11 295.11 297.89997 305.68995">http://www-huber.embl.de/users/anders/HTSeq/doc/count.html</tspan></text>
<path transform="matrix(1,0,0,-1,0,792)" d="M114 626.8H76.2V638.6H151.8V626.8H114Z" fill="#99ccff" fill-rule="evenodd"/>
<path transform="matrix(1,0,0,-1,0,792)" stroke-width="0" stroke-linecap="butt" stroke-linejoin="round" fill="none" stroke="#000000" d="M114 626.8H76.2V638.6H151.8V626.8H114Z"/>
<text xml:space="preserve" transform="matrix(1 0 -0 1 0 792)" font-size="8" font-family="ArialMT"><tspan y="-629.8" x="96.9 101.796 106.29199 110.69199 112.892 117.38799 120.08399 124.48399 126.684">Feature 1</tspan></text>
<path transform="matrix(1,0,0,-1,0,792)" d="M118.4 649.5H99.4V657.3H137.4V649.5H118.4Z" fill="#94476b" fill-rule="evenodd"/>
<path transform="matrix(1,0,0,-1,0,792)" stroke-width="0" stroke-linecap="butt" stroke-linejoin="round" fill="none" stroke="#000000" d="M118.4 649.5H99.4V657.3H137.4V649.5H118.4Z"/>
<text xml:space="preserve" transform="matrix(1 0 -0 1 0 792)" font-size="8" font-family="ArialMT"><tspan y="-650.5" x="110.4 113.096 117.496 121.992">read</tspan></text>
<path transform="matrix(1,0,0,-1,0,792)" d="M114 562H76.2V573.8H151.8V562H114Z" fill="#99ccff" fill-rule="evenodd"/>
<path transform="matrix(1,0,0,-1,0,792)" stroke-width="0" stroke-linecap="butt" stroke-linejoin="round" fill="none" stroke="#000000" d="M114 562H76.2V573.8H151.8V562H114Z"/>
<text xml:space="preserve" transform="matrix(1 0 -0 1 0 792)" font-size="8" font-family="ArialMT"><tspan y="-565" x="96.9 101.796 106.29199 110.69199 112.892 117.38799 120.08399 124.48399 126.684">Feature 1</tspan></text>
<path transform="matrix(1,0,0,-1,0,792)" d="M150.1 584.7H131.1V592.5H169.1V584.7H150.1Z" fill="#94476b" fill-rule="evenodd"/>
<path transform="matrix(1,0,0,-1,0,792)" stroke-width="0" stroke-linecap="butt" stroke-linejoin="round" fill="none" stroke="#000000" d="M150.1 584.7H131.1V592.5H169.1V584.7H150.1Z"/>
<text xml:space="preserve" transform="matrix(1 0 -0 1 0 792)" font-size="8" font-family="ArialMT"><tspan y="-585.7" x="142.1 144.70001 149.19602 153.59601">read</tspan></text>
<path transform="matrix(1,0,0,-1,0,792)" d="M104.6 497.2H76.2V509H132.9V497.2H104.6Z" fill="#99ccff" fill-rule="evenodd"/>
<path transform="matrix(1,0,0,-1,0,792)" stroke-width="0" stroke-linecap="butt" stroke-linejoin="round" fill="none" stroke="#000000" d="M104.6 497.2H76.2V509H132.9V497.2H104.6Z"/>
<text xml:space="preserve" transform="matrix(1 0 -0 1 0 792)" font-size="8" font-family="ArialMT"><tspan y="-500.2" x="87.4 92.296 96.696 101.19199 103.392 107.792 110.488 114.98399 117.184">Feature 1</tspan></text>
<path transform="matrix(1,0,0,-1,0,792)" d="M144.7 519.9H111.1V527.7H178.2V519.9H144.7Z" fill="#94476b" fill-rule="evenodd"/>
<path transform="matrix(1,0,0,-1,0,792)" stroke-width="0" stroke-linecap="butt" stroke-linejoin="round" fill="none" stroke="#000000" d="M144.7 519.9H111.1V527.7H178.2V519.9H144.7Z"/>
<text xml:space="preserve" transform="matrix(1 0 -0 1 0 792)" font-size="8" font-family="ArialMT"><tspan y="-520.9" x="136.7 139.396 143.79599 148.29199">read</tspan></text>
<path transform="matrix(1,0,0,-1,0,792)" d="M112.6 366.8H75.4V378.7H149.8V366.8H112.6Z" fill="#99ccff" fill-rule="evenodd"/>
<path transform="matrix(1,0,0,-1,0,792)" stroke-width="0" stroke-linecap="butt" stroke-linejoin="round" fill="none" stroke="#000000" d="M112.6 366.8H75.4V378.7H149.8V366.8H112.6Z"/>
<text xml:space="preserve" transform="matrix(1 0 -0 1 0 792)" font-size="8" font-family="ArialMT"><tspan y="-369.8" x="95.5 100.395999 104.89199 109.29199 111.492 115.98799 118.68399 123.08399 125.284">Feature 1</tspan></text>
<path transform="matrix(1,0,0,-1,0,792)" d="M160.1 345.2H129.2V357.1H190.9V345.2H160.1Z" fill="#0084d1" fill-rule="evenodd"/>
<path transform="matrix(1,0,0,-1,0,792)" stroke-width="0" stroke-linecap="butt" stroke-linejoin="round" fill="none" stroke="#000000" d="M160.1 345.2H129.2V357.1H190.9V345.2H160.1Z"/>
<text xml:space="preserve" transform="matrix(1 0 -0 1 0 792)" font-size="8" font-family="ArialMT"><tspan y="-348.2" x="143 147.89601 152.39202 156.792 158.992 163.488 166.184 170.584 172.784">Feature 2</tspan></text>
<path transform="matrix(1,0,0,-1,0,792)" d="M98.9 389.1H82.2V396.9H115.6V389.1H98.9Z" fill="#94476b" fill-rule="evenodd"/>
<path transform="matrix(1,0,0,-1,0,792)" stroke-width="0" stroke-linecap="butt" stroke-linejoin="round" fill="none" stroke="#000000" d="M98.9 389.1H82.2V396.9H115.6V389.1H98.9Z"/>
<text xml:space="preserve" transform="matrix(1 0 -0 1 0 792)" font-size="8" font-family="ArialMT"><tspan y="-390.1" x="90.9 93.5 97.995998 102.395999">read</tspan></text>
<path transform="matrix(1,0,0,-1,0,792)" d="M181.1 496.9H153.2V508.8H209.1V496.9H181.1Z" fill="#99ccff" fill-rule="evenodd"/>
<path transform="matrix(1,0,0,-1,0,792)" stroke-width="0" stroke-linecap="butt" stroke-linejoin="round" fill="none" stroke="#000000" d="M181.1 496.9H153.2V508.8H209.1V496.9H181.1Z"/>
<text xml:space="preserve" transform="matrix(1 0 -0 1 0 792)" font-size="8" font-family="ArialMT"><tspan y="-499.9" x="164 168.89601 173.296 177.792 179.992 184.392 187.088 191.584 193.784">Feature 1</tspan></text>
<path transform="matrix(1,0,0,-1,0,792)" d="M104.6 497.2H76.2V509H132.9V497.2H104.6Z" fill="#99ccff" fill-rule="evenodd"/>
<path transform="matrix(1,0,0,-1,0,792)" stroke-width="0" stroke-linecap="butt" stroke-linejoin="round" fill="none" stroke="#000000" d="M104.6 497.2H76.2V509H132.9V497.2H104.6Z"/>
<text xml:space="preserve" transform="matrix(1 0 -0 1 0 792)" font-size="8" font-family="ArialMT"><tspan y="-500.2" x="87.4 92.296 96.696 101.19199 103.392 107.792 110.488 114.98399 117.184">Feature 1</tspan></text>
<path transform="matrix(1,0,0,-1,0,792)" d="M116.3 455.1H100.4V462.9H132.1V455.1H116.3Z" fill="#94476b" fill-rule="evenodd"/>
<path transform="matrix(1,0,0,-1,0,792)" stroke-width="0" stroke-linecap="butt" stroke-linejoin="round" fill="none" stroke="#000000" d="M116.3 455.1H100.4V462.9H132.1V455.1H116.3Z"/>
<text xml:space="preserve" transform="matrix(1 0 -0 1 0 792)" font-size="8" font-family="ArialMT"><tspan y="-456.1" x="108.3 110.996 115.396 119.892">read</tspan></text>
<path transform="matrix(1,0,0,-1,0,792)" d="M104.6 432.4H76.2V444.2H132.9V432.4H104.6Z" fill="#99ccff" fill-rule="evenodd"/>
<path transform="matrix(1,0,0,-1,0,792)" stroke-width="0" stroke-linecap="butt" stroke-linejoin="round" fill="none" stroke="#000000" d="M104.6 432.4H76.2V444.2H132.9V432.4H104.6Z"/>
<text xml:space="preserve" transform="matrix(1 0 -0 1 0 792)" font-size="8" font-family="ArialMT"><tspan y="-435.4" x="87.4 92.296 96.696 101.19199 103.392 107.792 110.488 114.98399 117.184">Feature 1</tspan></text>
<path transform="matrix(1,0,0,-1,0,792)" d="M181.1 432.1H153.2V444H209.1V432.1H181.1Z" fill="#99ccff" fill-rule="evenodd"/>
<path transform="matrix(1,0,0,-1,0,792)" stroke-width="0" stroke-linecap="butt" stroke-linejoin="round" fill="none" stroke="#000000" d="M181.1 432.1H153.2V444H209.1V432.1H181.1Z"/>
<text xml:space="preserve" transform="matrix(1 0 -0 1 0 792)" font-size="8" font-family="ArialMT"><tspan y="-435.1" x="164 168.89601 173.296 177.792 179.992 184.392 187.088 191.584 193.784">Feature 1</tspan></text>
<path transform="matrix(1,0,0,-1,0,792)" d="M170.2 455.1H154.4V462.9H186.1V455.1H170.2Z" fill="#94476b" fill-rule="evenodd"/>
<path transform="matrix(1,0,0,-1,0,792)" stroke-width="0" stroke-linecap="butt" stroke-linejoin="round" fill="none" stroke="#000000" d="M170.2 455.1H154.4V462.9H186.1V455.1H170.2Z"/>
<text xml:space="preserve" transform="matrix(1 0 -0 1 0 792)" font-size="8" font-family="ArialMT"><tspan y="-456.1" x="162.2 164.8 169.296 173.696">read</tspan></text>
<path transform="matrix(1,0,0,-1,0,792)" d="M121.2 302.7H100V310.5H142.4V302.7H121.2Z" fill="#94476b" fill-rule="evenodd"/>
<path transform="matrix(1,0,0,-1,0,792)" stroke-width="0" stroke-linecap="butt" stroke-linejoin="round" fill="none" stroke="#000000" d="M121.2 302.7H100V310.5H142.4V302.7H121.2Z"/>
<text xml:space="preserve" transform="matrix(1 0 -0 1 0 792)" font-size="8" font-family="ArialMT"><tspan y="-303.7" x="113.2 115.799999 120.29599 124.69599">read</tspan></text>
<path transform="matrix(1,0,0,-1,0,792)" d="M112.6 280.4H75.4V292.3H149.8V280.4H112.6Z" fill="#99ccff" fill-rule="evenodd"/>
<path transform="matrix(1,0,0,-1,0,792)" stroke-width="0" stroke-linecap="butt" stroke-linejoin="round" fill="none" stroke="#000000" d="M112.6 280.4H75.4V292.3H149.8V280.4H112.6Z"/>
<text xml:space="preserve" transform="matrix(1 0 -0 1 0 792)" font-size="8" font-family="ArialMT"><tspan y="-283.4" x="95.5 100.395999 104.89199 109.29199 111.492 115.98799 118.68399 123.08399 125.284">Feature 1</tspan></text>
<path transform="matrix(1,0,0,-1,0,792)" d="M160.1 258.8H129.2V270.7H190.9V258.8H160.1Z" fill="#0084d1" fill-rule="evenodd"/>
<path transform="matrix(1,0,0,-1,0,792)" stroke-width="0" stroke-linecap="butt" stroke-linejoin="round" fill="none" stroke="#000000" d="M160.1 258.8H129.2V270.7H190.9V258.8H160.1Z"/>
<text xml:space="preserve" transform="matrix(1 0 -0 1 0 792)" font-size="8" font-family="ArialMT"><tspan y="-261.8" x="143 147.89601 152.39202 156.792 158.992 163.488 166.184 170.584 172.784">Feature 2</tspan></text>
<path transform="matrix(1,0,0,-1,0,792)" d="M138.5 216.3H123.9V224.1H153.2V216.3H138.5Z" fill="#94476b" fill-rule="evenodd"/>
<path transform="matrix(1,0,0,-1,0,792)" stroke-width="0" stroke-linecap="butt" stroke-linejoin="round" fill="none" stroke="#000000" d="M138.5 216.3H123.9V224.1H153.2V216.3H138.5Z"/>
<text xml:space="preserve" transform="matrix(1 0 -0 1 0 792)" font-size="8" font-family="ArialMT"><tspan y="-217.3" x="130.5 133.1 137.59601 141.996">read</tspan></text>
<path transform="matrix(1,0,0,-1,0,792)" d="M117.8 194H75.4V205.9H160.1V194H117.8Z" fill="#99ccff" fill-rule="evenodd"/>
<path transform="matrix(1,0,0,-1,0,792)" stroke-width="0" stroke-linecap="butt" stroke-linejoin="round" fill="none" stroke="#000000" d="M117.8 194H75.4V205.9H160.1V194H117.8Z"/>
<text xml:space="preserve" transform="matrix(1 0 -0 1 0 792)" font-size="8" font-family="ArialMT"><tspan y="-197" x="100.6 105.495998 109.895999 114.39199 116.591999 120.992 123.687999 128.184 130.384">Feature 1</tspan></text>
<path transform="matrix(1,0,0,-1,0,792)" d="M151.2 172.4H111.5V184.3H190.9V172.4H151.2Z" fill="#0084d1" fill-rule="evenodd"/>
<path transform="matrix(1,0,0,-1,0,792)" stroke-width="0" stroke-linecap="butt" stroke-linejoin="round" fill="none" stroke="#000000" d="M151.2 172.4H111.5V184.3H190.9V172.4H151.2Z"/>
<text xml:space="preserve" transform="matrix(1 0 -0 1 0 792)" font-size="8" font-family="ArialMT"><tspan y="-175.4" x="134.1 138.99602 143.39601 147.89202 150.09201 154.492 157.188 161.684 163.884">Feature 2</tspan></text>
<path transform="matrix(1,0,0,-1,0,792)" stroke-width="0" stroke-linecap="butt" stroke-linejoin="round" fill="none" stroke="#000000" d="M132.1 458.5H154.4"/>
</g>
</g>
</svg>
